<svg width="684" height="813" viewBox="0 0 684 813" fill="none" xmlns="http://www.w3.org/2000/svg">
<path d="M91.2367 361.758C64.6359 361.758 12.1777 415.379 12.1777 442.57C12.1777 469.761 64.6359 506.322 91.2367 506.322C117.837 506.322 170.296 469.761 170.296 442.57C170.296 415.379 117.86 361.758 91.2367 361.758ZM91.2367 481.457C77.9251 481.457 36.5036 456.177 36.5036 442.593C36.5036 429.009 77.9476 386.646 91.2367 386.646C104.526 386.646 145.97 429.009 145.97 442.593C145.97 456.177 104.526 481.457 91.2367 481.457Z" fill="url(#paint0_linear_9197_69408)" fill-opacity="0.15"/>
<path d="M473.3 117.36C413.985 117.36 297.013 236.927 297.013 297.558C297.013 358.189 413.985 439.714 473.3 439.714C532.615 439.714 649.587 358.189 649.587 297.558C649.587 236.927 532.665 117.36 473.3 117.36ZM473.3 384.269C443.618 384.269 351.255 327.899 351.255 297.609C351.255 267.32 443.668 172.857 473.3 172.857C502.932 172.857 595.345 267.32 595.345 297.609C595.345 327.899 502.932 384.269 473.3 384.269Z" fill="url(#paint1_linear_9197_69408)" fill-opacity="0.15"/>
<path d="M584.583 13.1882H595.79V15.9209L589.943 16.866C588.265 17.1243 586.865 17.5625 585.743 18.1824C584.62 18.8015 583.787 19.5701 583.246 20.4857C582.704 21.4021 582.433 22.4541 582.433 23.641C582.433 24.9061 582.729 25.9964 583.323 26.9119C583.917 27.8284 584.768 28.5318 585.879 29.0222C586.988 29.5125 588.304 29.7577 589.828 29.7577C590.963 29.7577 591.996 29.6091 592.925 29.3126C593.854 29.0161 594.692 28.5639 595.441 27.9571C595.848 27.6275 596.233 27.2467 596.602 26.8215L597.725 29.2926H601.597V8.15564H586.304L584.582 13.189L584.583 13.1882ZM595.191 23.1967C594.79 23.907 594.229 24.4679 593.506 24.8809C592.784 25.2939 591.945 25.5008 590.99 25.5008C590.268 25.5008 589.661 25.3208 589.17 24.9582C588.68 24.5974 588.435 24.094 588.435 23.448C588.435 22.7506 588.654 22.2159 589.093 21.8412C589.531 21.4673 590.163 21.2021 590.99 21.0473L595.791 20.35V20.8543C595.791 21.7055 595.591 22.4872 595.191 23.1967Z" fill="white"/>
<path d="M632.46 8.69728C631.285 8.02605 629.937 7.69043 628.414 7.69043C626.685 7.69043 625.175 8.10343 623.884 8.92943C623.111 9.42416 622.447 10.0841 621.888 10.9023C621.451 10.1745 620.848 9.54676 620.071 9.02594C618.741 8.1356 617.199 7.69043 615.444 7.69043C613.792 7.69043 612.373 8.07735 611.186 8.85205C610.399 9.36504 609.62 9.88411 609.089 10.6449L607.972 8.15473H604.1V29.2934H609.908V16.9425C609.908 16.1165 610.056 15.407 610.353 14.8132C610.649 14.2193 611.075 13.755 611.63 13.4194C612.185 13.0847 612.836 12.916 613.585 12.916C614.335 12.916 615.018 13.0838 615.56 13.4194C616.102 13.755 616.522 14.2193 616.818 14.8132C617.115 15.407 617.263 16.1165 617.263 16.9425V29.2934H623.071V16.9425C623.071 16.1165 623.218 15.407 623.516 14.8132C623.812 14.2193 624.238 13.755 624.793 13.4194C625.348 13.0847 625.999 12.916 626.748 12.916C627.498 12.916 628.181 13.0838 628.723 13.4194C629.265 13.755 629.684 14.2193 629.981 14.8132C630.278 15.407 630.426 16.1165 630.426 16.9425V29.2934H636.234V15.7044C636.234 14.1045 635.898 12.7038 635.227 11.5039C634.555 10.3041 633.633 9.36852 632.458 8.69728H632.46Z" fill="white"/>
<path d="M655.668 9.16143C654.042 8.18066 652.222 7.69027 650.209 7.69027C648.661 7.69027 647.286 7.98068 646.086 8.56149C645.336 8.92406 644.685 9.38053 644.131 9.93004V0.671875L638.324 4.00109V29.2941H642.195L643.243 26.6753C643.987 27.6812 644.96 28.4455 646.164 28.9646C647.39 29.4932 648.725 29.7584 650.171 29.7584C652.236 29.7584 654.081 29.268 655.707 28.2873C657.333 27.3065 658.617 25.9771 659.56 24.2999C660.501 22.6226 660.973 20.7637 660.973 18.7248C660.973 16.6859 660.494 14.7948 659.54 13.1306C658.584 11.4655 657.294 10.1431 655.668 9.1623V9.16143ZM654.274 21.7445C653.81 22.6226 653.164 23.306 652.339 23.7964C651.513 24.2868 650.558 24.532 649.474 24.532C648.39 24.532 647.518 24.2868 646.705 23.7964C645.892 23.306 645.26 22.6226 644.808 21.7445C644.356 20.8672 644.131 19.8603 644.131 18.7248C644.131 17.5892 644.357 16.5824 644.808 15.7051C645.26 14.8278 645.892 14.1435 646.705 13.6531C647.518 13.1627 648.441 12.9176 649.474 12.9176C650.558 12.9176 651.513 13.1688 652.339 13.6723C653.165 14.1757 653.81 14.86 654.274 15.7242C654.739 16.5893 654.972 17.5892 654.972 18.7248C654.972 19.8603 654.739 20.8672 654.274 21.7445Z" fill="white"/>
<path d="M682.388 14.0211C681.924 12.769 681.245 11.6657 680.355 10.711C679.465 9.75629 678.373 9.01376 677.083 8.48511C675.792 7.95647 674.309 7.69128 672.631 7.69128C670.617 7.69128 668.81 8.16949 667.21 9.12418C665.61 10.0797 664.338 11.3831 663.397 13.0342C662.454 14.6862 661.984 16.5704 661.984 18.6867C661.984 20.803 662.435 22.5845 663.339 24.2617C664.243 25.9398 665.52 27.2753 667.172 28.2691C668.823 29.263 670.773 29.7594 673.018 29.7594C674.463 29.7594 675.793 29.5464 677.006 29.1204C678.219 28.6943 679.271 28.0944 680.161 27.3205C681.051 26.5467 681.704 25.6433 682.117 24.6104L677.471 22.4037C677.058 23.1271 676.484 23.6948 675.748 24.107C675.012 24.52 674.128 24.726 673.096 24.726C671.959 24.726 670.992 24.4748 670.192 23.9713C669.392 23.4679 668.798 22.7654 668.411 21.8611C668.212 21.3959 668.078 20.8917 668.009 20.3508H682.814C682.916 20.0674 682.988 19.7257 683.027 19.3249C683.065 18.9249 683.085 18.5189 683.085 18.105C683.085 16.6338 682.853 15.2722 682.388 14.0202V14.0211ZM670.038 13.0725C670.76 12.5821 671.625 12.3369 672.631 12.3369C673.637 12.3369 674.535 12.5882 675.245 13.0916C675.955 13.595 676.451 14.2793 676.735 15.1436C676.835 15.4444 676.898 15.7617 676.931 16.0921H668.164C668.231 15.7931 668.31 15.507 668.411 15.2401C668.772 14.2854 669.314 13.5628 670.037 13.0716L670.038 13.0725Z" fill="white"/>
<path d="M577.12 8.15564L572.819 21.5534L568.516 8.15564H562.099L569.334 29.2943H576.303L583.538 8.15564H577.12Z" fill="white"/>
<path d="M543.379 6.31384C538.713 6.31384 529.509 15.5172 529.509 20.1837C529.509 24.8502 538.713 31.1226 543.379 31.1226C548.046 31.1226 557.249 24.8502 557.249 20.1837C557.249 15.5172 548.046 6.31384 543.379 6.31384ZM543.379 26.8552C541.045 26.8552 533.777 22.5174 533.777 20.1837C533.777 17.85 541.046 10.5812 543.379 10.5812C545.712 10.5812 552.982 17.8509 552.982 20.1837C552.982 22.5165 545.712 26.8552 543.379 26.8552Z" fill="white"/>
<ellipse cx="330.585" cy="731.142" rx="263.427" ry="14.2185" fill="#1453FE"/>
<ellipse cx="87.3764" cy="805.824" rx="69.735" ry="7.07856" fill="#1453FE"/>
<rect x="73.7159" y="302.393" width="497.096" height="316.191" rx="20.9303" fill="white" fill-opacity="0.15" stroke="#0031CC" stroke-width="1.55039"/>
<rect x="94.8322" y="323.358" width="455.37" height="272.174" rx="19.4972" fill="white" stroke="#224590" stroke-width="1.44424"/>
<path d="M222.902 529.775L122.971 568.952H522.124V347.516L420.491 453.692L322.832 432.684L222.902 529.775Z" fill="url(#paint2_linear_9197_69408)" fill-opacity="0.2"/>
<path d="M122.896 569.449C122.896 569.751 123.141 569.996 123.444 569.996C123.746 569.996 123.992 569.751 123.992 569.449H122.896ZM123.444 347.516H122.896V569.449H123.444H123.992V347.516H123.444Z" fill="#F1F5F9"/>
<path d="M321.716 569.449C321.716 569.751 321.961 569.996 322.263 569.996C322.566 569.996 322.811 569.751 322.811 569.449H321.716ZM322.263 347.516H321.716V569.449H322.263H322.811V347.516H322.263Z" fill="#F1F5F9"/>
<path d="M520.535 569.449C520.535 569.751 520.78 569.996 521.083 569.996C521.385 569.996 521.631 569.751 521.631 569.449H520.535ZM521.083 347.516H520.535V569.449H521.083H521.631V347.516H521.083Z" fill="#F1F5F9"/>
<path d="M222.304 569.449C222.304 569.751 222.55 569.996 222.852 569.996C223.155 569.996 223.4 569.751 223.4 569.449H222.304ZM222.852 347.516H222.304V569.449H222.852H223.4V347.516H222.852Z" fill="#F1F5F9"/>
<path d="M421.123 569.449C421.123 569.751 421.369 569.996 421.671 569.996C421.974 569.996 422.219 569.751 422.219 569.449H421.123ZM421.671 347.516H421.123V569.449H421.671H422.219V347.516H421.671Z" fill="#F1F5F9"/>
<path d="M123.444 432.589C123.142 432.589 122.896 432.835 122.896 433.137C122.896 433.44 123.142 433.685 123.444 433.685L123.444 432.589ZM521.083 433.137L521.083 432.589L123.444 432.589L123.444 433.137L123.444 433.685L521.083 433.685L521.083 433.137Z" fill="#F1F5F9"/>
<path d="M123.444 538.211C123.142 538.211 122.896 538.456 122.896 538.759C122.896 539.062 123.142 539.307 123.444 539.307L123.444 538.211ZM521.083 538.759L521.083 538.211L123.444 538.211L123.444 538.759L123.444 539.307L521.083 539.307L521.083 538.759Z" fill="#F1F5F9"/>
<path d="M123.444 379.776C123.142 379.776 122.896 380.021 122.896 380.324C122.896 380.626 123.142 380.872 123.444 380.872L123.444 379.776ZM521.083 380.324L521.083 379.776L123.444 379.776L123.444 380.324L123.444 380.872L521.083 380.872L521.083 380.324Z" fill="#F1F5F9"/>
<path d="M123.444 485.402C123.142 485.402 122.896 485.647 122.896 485.949C122.896 486.252 123.142 486.497 123.444 486.497L123.444 485.402ZM521.083 485.949L521.083 485.402L123.444 485.402L123.444 485.949L123.444 486.497L521.083 486.497L521.083 485.949Z" fill="#F1F5F9"/>
<path d="M123.948 568.601L223.196 530.164L322.368 433.038L421.371 452.463L521.085 349.441" stroke="#3E72FF" stroke-width="2.33361"/>
<circle cx="123.948" cy="569.449" r="4.42793" fill="white" stroke="#3E72FF" stroke-width="1.1668"/>
<circle cx="322.264" cy="433.137" r="4.42793" fill="white" stroke="#3E72FF" stroke-width="1.1668"/>
<circle cx="222.856" cy="529.952" r="4.42793" fill="white" stroke="#3E72FF" stroke-width="1.1668"/>
<circle cx="421.67" cy="453.471" r="4.42793" fill="white" stroke="#3E72FF" stroke-width="1.1668"/>
<circle cx="521.085" cy="349.441" r="4.42793" fill="white" stroke="#3E72FF" stroke-width="1.1668"/>
<rect x="13.7855" y="192.308" width="142.719" height="138.104" rx="38.2294" fill="white" fill-opacity="0.15" stroke="#0031CC" stroke-width="1.21363"/>
<g filter="url(#filter0_d_9197_69408)">
<path d="M112.025 209.158H58.6108C43.8398 209.158 31.8655 221.133 31.8655 235.904V289.318C31.8655 304.089 43.8398 316.064 58.6108 316.064H112.025C126.796 316.064 138.771 304.089 138.771 289.318V235.904C138.771 221.133 126.796 209.158 112.025 209.158Z" fill="white"/>
</g>
<path d="M85.2969 248.412V238.95H75.8345" stroke="#4B91F6" stroke-width="4.7869" stroke-linecap="round" stroke-linejoin="round"/>
<path d="M75.8607 276.81L66.3982 286.272V253.139C66.3982 251.884 66.8941 250.679 67.7847 249.789C68.6753 248.898 69.8796 248.402 71.1345 248.402H99.532C100.787 248.402 101.991 248.898 102.882 249.789C103.772 250.679 104.268 251.884 104.268 253.139V272.074C104.268 273.329 103.772 274.533 102.882 275.424C101.991 276.314 100.787 276.81 99.532 276.81H75.8708H75.8607Z" stroke="#4B91F6" stroke-width="4.7869" stroke-linecap="round" stroke-linejoin="round"/>
<path d="M61.6475 262.611H66.3838" stroke="#4B91F6" stroke-width="4.7869" stroke-linecap="round" stroke-linejoin="round"/>
<path d="M78.2107 260.243V264.979" stroke="#4B91F6" stroke-width="4.7869" stroke-linecap="round" stroke-linejoin="round"/>
<path d="M91.2366 259.646V264.382" stroke="#4B91F6" stroke-width="4.7869" stroke-linecap="round" stroke-linejoin="round"/>
<path d="M104.247 262.611H108.983" stroke="#4B91F6" stroke-width="4.7869" stroke-linecap="round" stroke-linejoin="round"/>
<rect x="517.214" y="192.476" width="144.669" height="55.1854" rx="25.9031" fill="white" fill-opacity="0.15" stroke="#1447EA" stroke-width="1.55039"/>
<rect x="529.509" y="201.15" width="120.078" height="37.8375" rx="18.9187" fill="#DCFCE7"/>
<path d="M547.72 219.807L555.043 212.485M555.043 212.485L562.318 219.76M555.043 212.485L554.996 227.083" stroke="#166434" stroke-width="2.07109" stroke-linecap="round" stroke-linejoin="round"/>
<path d="M577.708 228.664L583.382 221.237L583.711 221.04C583.492 221.39 583.236 221.668 582.944 221.872C582.652 222.077 582.331 222.223 581.98 222.311C581.63 222.398 581.243 222.442 580.819 222.442C579.87 222.442 579.015 222.223 578.256 221.785C577.496 221.332 576.89 220.719 576.437 219.945C575.999 219.156 575.78 218.258 575.78 217.25C575.78 216.257 576.006 215.373 576.459 214.599C576.927 213.825 577.555 213.211 578.343 212.758C579.147 212.306 580.045 212.079 581.038 212.079C582.061 212.079 582.966 212.313 583.755 212.78C584.544 213.233 585.164 213.868 585.617 214.686C586.07 215.49 586.296 216.417 586.296 217.469C586.296 218.053 586.223 218.63 586.077 219.2C585.946 219.769 585.741 220.332 585.464 220.887C585.186 221.442 584.836 221.997 584.412 222.552L579.811 228.664H577.708ZM581.038 220.865C581.725 220.865 582.331 220.711 582.857 220.405C583.382 220.083 583.791 219.652 584.083 219.112C584.39 218.557 584.544 217.936 584.544 217.25C584.544 216.549 584.39 215.928 584.083 215.388C583.777 214.832 583.36 214.402 582.835 214.095C582.309 213.774 581.71 213.613 581.038 213.613C580.366 213.613 579.767 213.774 579.242 214.095C578.716 214.402 578.3 214.832 577.993 215.388C577.686 215.928 577.533 216.549 577.533 217.25C577.533 217.936 577.679 218.557 577.971 219.112C578.278 219.652 578.694 220.083 579.22 220.405C579.76 220.711 580.366 220.865 581.038 220.865ZM595.644 228.927C594.359 228.927 593.227 228.577 592.248 227.875C591.284 227.16 590.532 226.174 589.992 224.918C589.451 223.647 589.181 222.172 589.181 220.492C589.181 218.813 589.451 217.345 589.992 216.089C590.532 214.818 591.284 213.832 592.248 213.131C593.212 212.43 594.337 212.079 595.622 212.079C596.908 212.079 598.032 212.43 598.996 213.131C599.96 213.832 600.712 214.818 601.253 216.089C601.793 217.345 602.063 218.813 602.063 220.492C602.063 222.172 601.793 223.647 601.253 224.918C600.727 226.188 599.982 227.174 599.018 227.875C598.054 228.577 596.93 228.927 595.644 228.927ZM595.644 227.284C596.579 227.284 597.397 226.999 598.098 226.429C598.799 225.86 599.347 225.071 599.741 224.063C600.136 223.041 600.333 221.851 600.333 220.492C600.333 219.134 600.136 217.951 599.741 216.943C599.347 215.921 598.799 215.132 598.098 214.577C597.397 214.007 596.572 213.722 595.622 213.722C594.688 213.722 593.87 214.007 593.169 214.577C592.467 215.132 591.92 215.921 591.525 216.943C591.131 217.951 590.934 219.134 590.934 220.492C590.934 221.836 591.131 223.019 591.525 224.041C591.92 225.064 592.467 225.86 593.169 226.429C593.884 226.999 594.709 227.284 595.644 227.284ZM606.674 228.664L620.038 212.342H622.163L608.799 228.664H606.674ZM609.062 220.624C608.273 220.624 607.557 220.434 606.915 220.054C606.272 219.66 605.753 219.141 605.359 218.499C604.979 217.856 604.789 217.14 604.789 216.351C604.789 215.563 604.979 214.847 605.359 214.204C605.753 213.547 606.272 213.029 606.915 212.649C607.557 212.269 608.273 212.079 609.062 212.079C609.85 212.079 610.566 212.269 611.209 212.649C611.851 213.029 612.363 213.547 612.742 214.204C613.122 214.847 613.312 215.563 613.312 216.351C613.312 217.14 613.122 217.856 612.742 218.499C612.363 219.141 611.851 219.66 611.209 220.054C610.566 220.434 609.85 220.624 609.062 220.624ZM609.062 219.046C609.573 219.046 610.018 218.922 610.398 218.674C610.792 218.411 611.099 218.075 611.318 217.666C611.552 217.242 611.669 216.804 611.669 216.351C611.669 215.884 611.552 215.446 611.318 215.037C611.099 214.628 610.792 214.299 610.398 214.051C610.018 213.788 609.573 213.657 609.062 213.657C608.565 213.657 608.112 213.788 607.703 214.051C607.309 214.299 606.995 214.628 606.761 215.037C606.542 215.446 606.433 215.884 606.433 216.351C606.433 216.804 606.542 217.242 606.761 217.666C606.995 218.075 607.309 218.411 607.703 218.674C608.112 218.922 608.565 219.046 609.062 219.046ZM619.578 228.927C618.789 228.927 618.073 228.737 617.431 228.357C616.788 227.963 616.27 227.445 615.875 226.802C615.495 226.159 615.306 225.444 615.306 224.655C615.306 223.866 615.495 223.15 615.875 222.508C616.27 221.851 616.788 221.332 617.431 220.952C618.073 220.573 618.789 220.383 619.578 220.383C620.367 220.383 621.082 220.573 621.725 220.952C622.368 221.332 622.879 221.851 623.258 222.508C623.638 223.15 623.828 223.866 623.828 224.655C623.828 225.444 623.638 226.159 623.258 226.802C622.879 227.445 622.368 227.963 621.725 228.357C621.082 228.737 620.367 228.927 619.578 228.927ZM619.578 227.35C620.089 227.35 620.534 227.226 620.914 226.977C621.309 226.714 621.615 226.378 621.834 225.969C622.068 225.546 622.185 225.108 622.185 224.655C622.185 224.188 622.068 223.749 621.834 223.34C621.615 222.931 621.309 222.603 620.914 222.354C620.534 222.092 620.089 221.96 619.578 221.96C619.081 221.96 618.628 222.092 618.219 222.354C617.825 222.603 617.511 222.931 617.277 223.34C617.058 223.749 616.949 224.188 616.949 224.655C616.949 225.108 617.058 225.546 617.277 225.969C617.511 226.378 617.825 226.714 618.219 226.977C618.628 227.226 619.081 227.35 619.578 227.35Z" fill="#166434"/>
<defs>
<filter id="filter0_d_9197_69408" x="0.0190868" y="186.097" width="170.598" height="170.598" filterUnits="userSpaceOnUse" color-interpolation-filters="sRGB">
<feFlood flood-opacity="0" result="BackgroundImageFix"/>
<feColorMatrix in="SourceAlpha" type="matrix" values="0 0 0 0 0 0 0 0 0 0 0 0 0 0 0 0 0 0 127 0" result="hardAlpha"/>
<feOffset dy="8.78521"/>
<feGaussianBlur stdDeviation="15.9232"/>
<feComposite in2="hardAlpha" operator="out"/>
<feColorMatrix type="matrix" values="0 0 0 0 0 0 0 0 0 0 0 0 0 0 0 0 0 0 0.1 0"/>
<feBlend mode="normal" in2="BackgroundImageFix" result="effect1_dropShadow_9197_69408"/>
<feBlend mode="normal" in="SourceGraphic" in2="effect1_dropShadow_9197_69408" result="shape"/>
</filter>
<linearGradient id="paint0_linear_9197_69408" x1="91.2367" y1="361.758" x2="91.2367" y2="506.322" gradientUnits="userSpaceOnUse">
<stop stop-color="#F8FAFC"/>
<stop offset="1" stop-color="#0C41FF"/>
</linearGradient>
<linearGradient id="paint1_linear_9197_69408" x1="473.3" y1="117.36" x2="473.3" y2="439.714" gradientUnits="userSpaceOnUse">
<stop stop-color="#F8FAFC"/>
<stop offset="1" stop-color="#0C41FF"/>
</linearGradient>
<linearGradient id="paint2_linear_9197_69408" x1="322.548" y1="347.516" x2="322.548" y2="568.952" gradientUnits="userSpaceOnUse">
<stop stop-color="#0C41FF"/>
<stop offset="1" stop-color="white"/>
</linearGradient>
</defs>
</svg>
